<svg width="144" height="144" viewBox="0 0 144 144" fill="none" xmlns="http://www.w3.org/2000/svg">
<g clip-path="url(#clip0_31_17)">
<path d="M41.5144 45.748C44.3483 40.8254 51.8753 43.013 51.7487 48.7225L51.5606 57.2073C51.4847 60.6285 54.4932 63.3221 57.8581 62.8457L66.2211 61.6617C71.855 60.864 74.8839 68.1777 70.3246 71.5703L63.7912 76.4318C61.039 78.4796 60.8424 82.559 63.3822 84.9158L69.4186 90.5174C73.6337 94.4289 69.8978 101.359 64.3671 99.8877L56.3204 97.7473C53.0036 96.865 49.7314 99.2139 49.4956 102.647L48.9248 110.952C48.5331 116.653 40.8339 117.989 38.4681 112.767L34.9233 104.943C33.5108 101.825 29.6628 100.707 26.8556 102.598L19.8105 107.344C15.1085 110.512 9.25061 105.236 11.8545 100.178L15.6483 92.8094C17.2162 89.7639 15.6442 86.0071 12.3695 84.9737L4.42492 82.4665C-1.03555 80.7433 -0.641759 72.8421 4.95738 71.7829L12.9759 70.2661C16.3497 69.6279 18.2842 66.0537 16.9992 62.8325L13.9487 55.1856C11.82 49.8493 18.1633 45.2595 22.5427 48.9673L29.0435 54.4713C31.6591 56.6858 35.6048 56.0133 37.303 53.0636L41.5144 45.748Z" fill="#F1ADD9"/>
<path d="M101.589 7.33779C105.781 3.41251 112.508 7.46225 110.723 12.8364L108.088 20.7724C107.017 23.9953 109.182 27.3405 112.613 27.7661L121.07 28.8151C126.801 29.526 127.659 37.2354 122.233 39.2631L114.372 42.2009C111.105 43.4217 109.739 47.2163 111.525 50.1073L115.826 57.069C118.795 61.8757 113.146 67.4401 108.177 64.6023L100.922 60.4581C97.9409 58.7555 94.0697 60.1176 92.8438 63.3003L89.8639 71.0366C87.8249 76.3303 79.915 75.5622 79.1302 69.9943L77.9663 61.7366C77.4966 58.404 74.0492 56.3286 70.7531 57.3941L62.5858 60.0343C57.0789 61.8144 52.8702 55.2869 56.8747 51.1764L62.7268 45.1693C65.1344 42.698 64.6853 38.735 61.7897 36.8998L54.7415 32.4328C49.9151 29.374 52.5743 22.0094 58.3417 22.4625L66.6946 23.1187C70.1634 23.3912 73.076 20.5273 72.7631 17.1517L72.0103 9.02788C71.4906 3.4206 79.0145 0.757263 82.2068 5.41844L86.9181 12.2974C88.8292 15.0879 92.8863 15.4881 95.3999 13.1342L101.589 7.33779Z" fill="#B4E2F2"/>
<path d="M95.2151 67.4658C96.6859 61.9567 104.628 62.4561 105.881 68.1364L108.114 78.2593C108.871 81.6879 112.541 83.696 115.71 82.4156L124.962 78.6773C130.158 76.5777 135.017 82.9496 131.561 87.3328L124.806 95.9027C122.771 98.4844 123.576 102.379 126.508 104.134L136.18 109.926C141.127 112.888 139.2 120.351 133.544 120.131L122.931 119.719C119.526 119.586 116.956 122.561 117.549 125.948L119.423 136.655C120.42 142.358 113.189 145.258 109.677 140.564L103.57 132.4C101.426 129.534 97.2762 129.273 95.0261 131.863L88.617 139.24C84.9316 143.481 77.8302 139.68 79.047 134.117L81.3319 123.671C82.0546 120.366 79.6064 117.076 76.205 116.78L65.6014 115.859C59.9511 115.368 58.318 107.681 63.3682 105.347L73.2415 100.785C76.2343 99.4018 77.1886 95.6182 75.2586 92.7871L68.8521 83.3896C65.5754 78.5831 70.6692 72.837 75.7714 75.5841L84.8559 80.4754C87.9676 82.1508 91.7064 80.6086 92.5942 77.2834L95.2151 67.4658Z" fill="#F6DD79"/>
</g>
<defs>
<clipPath id="clip0_31_17">
<rect width="144" height="144" fill="white"/>
</clipPath>
</defs>
</svg>
