<svg width="183" height="175" viewBox="0 0 183 175" fill="none" xmlns="http://www.w3.org/2000/svg">
<path fill-rule="evenodd" clip-rule="evenodd" d="M50.8333 38.8889C50.8333 28.5749 55.1178 18.6834 62.7443 11.3903C70.3708 4.09721 80.7145 0 91.5 0C102.285 0 112.629 4.09721 120.256 11.3903C127.882 18.6834 132.167 28.5749 132.167 38.8889C132.167 49.2029 127.882 59.0944 120.256 66.3875C112.629 73.6806 102.285 77.7778 91.5 77.7778C80.7145 77.7778 70.3708 73.6806 62.7443 66.3875C55.1178 59.0944 50.8333 49.2029 50.8333 38.8889ZM50.8333 97.2222C37.3515 97.2222 24.4218 102.344 14.8887 111.46C5.35564 120.576 0 132.941 0 145.833C0 153.569 3.21338 160.987 8.93324 166.457C14.6531 171.927 22.4109 175 30.5 175H152.5C160.589 175 168.347 171.927 174.067 166.457C179.787 160.987 183 153.569 183 145.833C183 132.941 177.644 120.576 168.111 111.46C158.578 102.344 145.649 97.2222 132.167 97.2222H50.8333Z" fill="#373535"/>
</svg>
