<svg width="45" height="41" viewBox="0 0 45 41" fill="none" xmlns="http://www.w3.org/2000/svg">
<path d="M19.9 32.1305L24.1 36.4347C24.5137 36.8586 25.0048 37.1949 25.5453 37.4243C26.0857 37.6538 26.665 37.7718 27.25 37.7718C27.835 37.7718 28.4143 37.6538 28.9548 37.4243C29.4953 37.1949 29.9864 36.8586 30.4 36.4347C30.8137 36.0108 31.1418 35.5075 31.3657 34.9536C31.5896 34.3997 31.7048 33.8061 31.7048 33.2065C31.7048 32.607 31.5896 32.0134 31.3657 31.4595C31.1418 30.9056 30.8137 30.4023 30.4 29.9784" stroke="#373535" stroke-width="4" stroke-linecap="round" stroke-linejoin="round"/>
<path d="M26.1999 25.6742L31.4499 31.0545C32.2853 31.9106 33.4184 32.3916 34.5999 32.3916C35.7814 32.3916 36.9145 31.9106 37.7499 31.0545C38.5853 30.1983 39.0547 29.0371 39.0547 27.8263C39.0547 26.6155 38.5853 25.4543 37.7499 24.5981L29.6019 16.248C28.4206 15.0389 26.8194 14.3598 25.1499 14.3598C23.4804 14.3598 21.8791 15.0389 20.6979 16.248L18.8499 18.1418C18.0145 18.998 16.8814 19.479 15.6999 19.479C14.5184 19.479 13.3853 18.998 12.5499 18.1418C11.7145 17.2857 11.2451 16.1245 11.2451 14.9137C11.2451 13.7029 11.7145 12.5417 12.5499 11.6855L18.4509 5.63813C20.3666 3.68003 22.8649 2.43269 25.5502 2.09357C28.2356 1.75444 30.9546 2.3429 33.2769 3.76581L34.2639 4.36839C35.158 4.92146 36.2212 5.11327 37.2459 4.90642L40.8999 4.15318" stroke="#373535" stroke-width="4" stroke-linecap="round" stroke-linejoin="round"/>
<path d="M40.9 2.00098L43 25.6741H38.8M3.1 2.00098L1 25.6741L14.65 39.6627C15.4854 40.5189 16.6185 40.9999 17.8 40.9999C18.9815 40.9999 20.1146 40.5189 20.95 39.6627C21.7854 38.8066 22.2548 37.6454 22.2548 36.4346C22.2548 35.2238 21.7854 34.0626 20.95 33.2064M3.1 4.15308H19.9" stroke="#373535" stroke-width="4" stroke-linecap="round" stroke-linejoin="round"/>
</svg>
