<svg width="476" height="203" viewBox="0 0 476 203" fill="none" xmlns="http://www.w3.org/2000/svg">
<path d="M67.422 79.7971C69.4816 76.119 75.095 77.7174 74.9081 81.9288L74.544 90.1325C74.4307 92.6857 76.708 94.6888 79.2258 94.2507L87.1324 92.8749C91.2119 92.1651 93.5494 97.3616 90.3119 99.9432L83.0174 105.76C81.1385 107.258 80.9954 110.063 82.7121 111.745L89.2948 118.193C92.2202 121.059 89.4602 125.948 85.4952 124.923L77.138 122.764C74.7453 122.146 72.3702 123.824 72.1529 126.285L71.3725 135.129C71.0038 139.307 65.2735 140.174 63.6858 136.292L60.718 129.038C59.7362 126.638 56.7656 125.792 54.6668 127.315L48.3225 131.918C44.9283 134.38 40.5143 130.625 42.4015 126.88L46.397 118.951C47.5092 116.745 46.3741 114.067 44.0148 113.332L35.7738 110.765C31.864 109.547 32.0934 103.937 36.0897 103.043L45.0819 101.029C47.4269 100.504 48.7829 98.0445 47.9751 95.7813L44.839 86.9946C43.4471 83.0948 48.1715 79.9092 51.2651 82.6616L57.2609 87.9961C59.1702 89.6948 62.1611 89.1919 63.4098 86.962L67.422 79.7971Z" fill="#F1ADD9"/>
<path d="M114.889 47.292C117.88 44.3222 122.838 47.4029 121.5 51.4005L118.893 59.1877C118.082 61.6111 119.721 64.1633 122.262 64.4346L130.242 65.2866C134.359 65.7262 135.177 71.3652 131.355 72.9567L122.742 76.5426C120.523 77.4663 119.614 80.1238 120.802 82.2127L125.358 90.2229C127.382 93.7828 123.384 97.7239 119.853 95.6486L112.412 91.2743C110.282 90.0219 107.537 90.9817 106.651 93.2886L103.468 101.577C101.965 105.492 96.2171 104.749 95.7581 100.581L94.9 92.7897C94.6162 90.2123 91.9928 88.582 89.5562 89.4688L82.1906 92.1493C78.25 93.5833 75.0391 88.7586 77.8835 85.6773L83.9056 79.1535C85.5818 77.3377 85.2268 74.4515 83.1607 73.0959L75.9437 68.3609C72.5197 66.1145 74.2831 60.7844 78.3713 61.0233L87.5704 61.5608C89.9695 61.701 91.9497 59.7092 91.7955 57.311L91.197 48.0007C90.9314 43.8684 96.3498 42.1051 98.567 45.6022L102.864 52.3801C104.233 54.5384 107.247 54.8775 109.061 53.0771L114.889 47.292Z" fill="#B4E2F2"/>
<path d="M108.427 96.3217C109.55 92.2252 115.441 92.4714 116.218 96.6472L118.014 106.302C118.487 108.848 121.218 110.279 123.581 109.221L132.174 105.373C135.948 103.683 139.493 108.132 137.002 111.433L130.08 120.607C128.661 122.487 129.167 125.18 131.171 126.419L140.732 132.327C144.189 134.463 142.628 139.796 138.564 139.729L128.258 139.561C125.799 139.521 123.886 141.689 124.233 144.125L125.764 154.864C126.359 159.037 120.928 161.173 118.52 157.713L113.267 150.163C111.756 147.991 108.59 147.859 106.902 149.897L101.037 156.983C98.3496 160.23 93.1161 157.648 94.057 153.539L96.4785 142.965C97.0276 140.567 95.3025 138.246 92.848 138.081L82.5637 137.389C78.5091 137.116 77.3977 131.672 81.0209 129.832L91.0423 124.742C93.1426 123.675 93.8708 121.033 92.6138 119.041L86.4816 109.322C84.2748 105.824 88.1781 101.687 91.7982 103.686L100.04 108.237C102.307 109.489 105.147 108.29 105.832 105.793L108.427 96.3217Z" fill="#F6DD79"/>
<path d="M169.86 131.595C165.497 131.595 161.587 130.887 158.13 129.47C154.673 128.053 151.897 125.957 149.8 123.18C147.76 120.403 146.683 117.06 146.57 113.15H162.04C162.267 115.36 163.032 117.06 164.335 118.25C165.638 119.383 167.338 119.95 169.435 119.95C171.588 119.95 173.288 119.468 174.535 118.505C175.782 117.485 176.405 116.097 176.405 114.34C176.405 112.867 175.895 111.648 174.875 110.685C173.912 109.722 172.693 108.928 171.22 108.305C169.803 107.682 167.763 106.973 165.1 106.18C161.247 104.99 158.102 103.8 155.665 102.61C153.228 101.42 151.132 99.6633 149.375 97.34C147.618 95.0167 146.74 91.985 146.74 88.245C146.74 82.6917 148.752 78.3567 152.775 75.24C156.798 72.0667 162.04 70.48 168.5 70.48C175.073 70.48 180.372 72.0667 184.395 75.24C188.418 78.3567 190.572 82.72 190.855 88.33H175.13C175.017 86.4033 174.308 84.9017 173.005 83.825C171.702 82.6917 170.03 82.125 167.99 82.125C166.233 82.125 164.817 82.6067 163.74 83.57C162.663 84.4767 162.125 85.8083 162.125 87.565C162.125 89.4917 163.032 90.9933 164.845 92.07C166.658 93.1467 169.492 94.3083 173.345 95.555C177.198 96.8583 180.315 98.105 182.695 99.295C185.132 100.485 187.228 102.213 188.985 104.48C190.742 106.747 191.62 109.665 191.62 113.235C191.62 116.635 190.742 119.723 188.985 122.5C187.285 125.277 184.792 127.487 181.505 129.13C178.218 130.773 174.337 131.595 169.86 131.595ZM244.665 87.4104L217.324 151.701H202.95L212.95 129.516L195.217 87.4104H210.137L220.214 114.673L230.214 87.4104H244.665ZM276.056 86.9416C281.159 86.9416 285.222 88.6082 288.242 91.9412C291.315 95.2221 292.851 99.7529 292.851 105.534V131H279.571V107.33C279.571 104.414 278.816 102.149 277.306 100.534C275.795 98.9197 273.764 98.1125 271.212 98.1125C268.661 98.1125 266.63 98.9197 265.119 100.534C263.609 102.149 262.854 104.414 262.854 107.33V131H249.496V87.4104H262.854V93.1911C264.208 91.2642 266.031 89.7539 268.322 88.6602C270.614 87.5145 273.191 86.9416 276.056 86.9416ZM299.478 109.205C299.478 104.674 300.389 100.716 302.212 97.3313C304.087 93.9462 306.664 91.3423 309.945 89.5195C313.278 87.6968 317.08 86.7854 321.351 86.7854C326.819 86.7854 331.376 88.2176 335.021 91.0819C338.719 93.9462 341.14 97.9823 342.286 103.19H328.069C326.871 99.8571 324.553 98.1906 321.116 98.1906C318.669 98.1906 316.716 99.154 315.257 101.081C313.799 102.956 313.07 105.664 313.07 109.205C313.07 112.747 313.799 115.481 315.257 117.408C316.716 119.282 318.669 120.22 321.116 120.22C324.553 120.22 326.871 118.553 328.069 115.22H342.286C341.14 120.324 338.719 124.334 335.021 127.25C331.324 130.167 326.767 131.625 321.351 131.625C317.08 131.625 313.278 130.714 309.945 128.891C306.664 127.068 304.087 124.464 302.212 121.079C300.389 117.694 299.478 113.736 299.478 109.205ZM363.678 72.734V107.594C363.678 111.08 364.536 113.764 366.251 115.645C367.966 117.526 370.484 118.467 373.804 118.467C377.124 118.467 379.669 117.526 381.44 115.645C383.211 113.764 384.096 111.08 384.096 107.594V72.734H398.289V107.511C398.289 112.712 397.182 117.111 394.969 120.708C392.756 124.305 389.768 127.016 386.005 128.842C382.298 130.668 378.148 131.581 373.555 131.581C368.962 131.581 364.84 130.696 361.188 128.925C357.591 127.099 354.742 124.388 352.639 120.791C350.536 117.139 349.485 112.712 349.485 107.511V72.734H363.678ZM421.311 93.5816C422.613 91.5506 424.41 89.9101 426.701 88.6602C428.993 87.4104 431.675 86.7854 434.747 86.7854C438.341 86.7854 441.596 87.6968 444.512 89.5195C447.428 91.3423 449.72 93.9462 451.386 97.3313C453.105 100.716 453.964 104.648 453.964 109.127C453.964 113.606 453.105 117.564 451.386 121.001C449.72 124.386 447.428 127.016 444.512 128.891C441.596 130.714 438.341 131.625 434.747 131.625C431.727 131.625 429.045 131 426.701 129.75C424.41 128.5 422.613 126.886 421.311 124.907V151.779H407.953V87.4104H421.311V93.5816ZM440.372 109.127C440.372 105.794 439.434 103.19 437.56 101.315C435.737 99.3884 433.471 98.4249 430.763 98.4249C428.107 98.4249 425.842 99.3884 423.967 101.315C422.144 103.242 421.233 105.872 421.233 109.205C421.233 112.538 422.144 115.168 423.967 117.095C425.842 119.022 428.107 119.985 430.763 119.985C433.419 119.985 435.685 119.022 437.56 117.095C439.434 115.116 440.372 112.46 440.372 109.127Z" fill="#373535"/>
</svg>
